<svg version="1.1" viewBox="0.0 0.0 75.59055118110236 75.59055118110236" fill="none" stroke="none" stroke-linecap="square" stroke-miterlimit="10" xmlns:xlink="http://www.w3.org/1999/xlink" xmlns="http://www.w3.org/2000/svg"><clipPath id="p.0"><path d="m0 0l75.59055 0l0 75.59055l-75.59055 0l0 -75.59055z" clip-rule="nonzero"/></clipPath><g clip-path="url(#p.0)"><path fill="#000000" fill-opacity="0.0" d="m0 0l75.59055 0l0 75.59055l-75.59055 0z" fill-rule="evenodd"/><path fill="#000000" fill-opacity="0.0" d="m1.984252 37.795277l0 0c0 -19.777882 16.033142 -35.811024 35.811024 -35.811024c19.777882 0 35.811024 16.033142 35.811024 35.811024c0 19.777882 -16.033142 35.811024 -35.811024 35.811024c-19.777884 0 -35.811024 -16.033142 -35.811024 -35.811024z" fill-rule="evenodd"/><path fill="#000000" fill-opacity="0.0" d="m22.592169 27.085127c0 -2.060196 1.6701202 -3.7303143 3.7303162 -3.7303143c2.060196 0 3.7303143 1.6701183 3.7303143 3.7303143c0 2.060196 -1.6701183 3.7303162 -3.7303143 3.7303162c-2.060196 0 -3.7303162 -1.6701202 -3.7303162 -3.7303162m22.945581 0c0 -2.060196 1.6701202 -3.7303143 3.7303162 -3.7303143c2.060196 0 3.7303162 1.6701183 3.7303162 3.7303143c0 2.060196 -1.6701202 3.7303162 -3.7303162 3.7303162c-2.060196 0 -3.7303162 -1.6701202 -3.7303162 -3.7303162" fill-rule="evenodd"/><path fill="#000000" fill-opacity="0.0" d="m18.385466 53.4127q19.409811 13.330296 38.774292 0" fill-rule="evenodd"/><path fill="#000000" fill-opacity="0.0" d="m1.984252 37.795277l0 0c0 -19.777882 16.033142 -35.811024 35.811024 -35.811024c19.777882 0 35.811024 16.033142 35.811024 35.811024c0 19.777882 -16.033142 35.811024 -35.811024 35.811024c-19.777884 0 -35.811024 -16.033142 -35.811024 -35.811024z" fill-rule="evenodd"/><path fill="#000000" fill-opacity="0.2" d="m22.592169 27.085127c0 -2.060196 1.6701202 -3.7303143 3.7303162 -3.7303143c2.060196 0 3.7303143 1.6701183 3.7303143 3.7303143c0 2.060196 -1.6701183 3.7303162 -3.7303143 3.7303162c-2.060196 0 -3.7303162 -1.6701202 -3.7303162 -3.7303162m22.945581 0c0 -2.060196 1.6701202 -3.7303143 3.7303162 -3.7303143c2.060196 0 3.7303162 1.6701183 3.7303162 3.7303143c0 2.060196 -1.6701202 3.7303162 -3.7303162 3.7303162c-2.060196 0 -3.7303162 -1.6701202 -3.7303162 -3.7303162" fill-rule="evenodd"/><path stroke="#000000" stroke-width="1.3333333333333333" stroke-miterlimit="800.0" stroke-linecap="butt" d="m22.592169 27.085127c0 -2.060196 1.6701202 -3.7303143 3.7303162 -3.7303143c2.060196 0 3.7303143 1.6701183 3.7303143 3.7303143c0 2.060196 -1.6701183 3.7303162 -3.7303143 3.7303162c-2.060196 0 -3.7303162 -1.6701202 -3.7303162 -3.7303162m22.945581 0c0 -2.060196 1.6701202 -3.7303143 3.7303162 -3.7303143c2.060196 0 3.7303162 1.6701183 3.7303162 3.7303143c0 2.060196 -1.6701202 3.7303162 -3.7303162 3.7303162c-2.060196 0 -3.7303162 -1.6701202 -3.7303162 -3.7303162" fill-rule="evenodd"/><path stroke="#000000" stroke-width="1.3333333333333333" stroke-miterlimit="800.0" stroke-linecap="butt" d="m18.385466 53.4127q19.409811 13.330296 38.774292 0" fill-rule="evenodd"/><path stroke="#000000" stroke-width="1.3333333333333333" stroke-miterlimit="800.0" stroke-linecap="butt" d="m1.984252 37.795277l0 0c0 -19.777882 16.033142 -35.811024 35.811024 -35.811024c19.777882 0 35.811024 16.033142 35.811024 35.811024c0 19.777882 -16.033142 35.811024 -35.811024 35.811024c-19.777884 0 -35.811024 -16.033142 -35.811024 -35.811024z" fill-rule="evenodd"/></g></svg>